<svg xmlns="http://www.w3.org/2000/svg" viewBox="0 0 512 512">
  <rect width="512" height="512" rx="96" fill="#0f766e"/>
  <path d="M256 80c-72 0-130 58-130 130 0 36 16 76 42 114 26 38 58 72 88 96 30-24 62-58 88-96 26-38 42-78 42-114 0-72-58-130-130-130z" fill="#14b8a6" opacity="0.3"/>
  <circle cx="256" cy="220" r="60" fill="#ccfbf1"/>
  <path d="M160 310c0 0 36 56 96 56s96-56 96-56" stroke="#99f6e4" stroke-width="12" fill="none" stroke-linecap="round"/>
  <path d="M140 350c0 0 44 72 116 72s116-72 116-72" stroke="#99f6e4" stroke-width="10" fill="none" stroke-linecap="round" opacity="0.5"/>
  <path d="M130 386c0 0 50 80 126 80s126-80 126-80" stroke="#99f6e4" stroke-width="8" fill="none" stroke-linecap="round" opacity="0.3"/>
</svg>
